# Blender 3.4.1
# www.blender.org
o Sphere
v 0.000000 0.191342 0.461940
v 0.000000 0.000000 0.500000
v 0.000000 -0.191342 0.461940
v 0.000000 -0.461940 0.191342
v -0.073223 0.461940 0.176777
v -0.135299 0.353553 0.326641
v -0.176777 0.191342 0.426777
v -0.191342 0.000000 0.461940
v -0.176777 -0.191342 0.426777
v -0.135299 -0.353553 0.326641
v -0.073223 -0.461940 0.176777
v -0.135299 0.461940 0.135299
v -0.250000 0.353553 0.250000
v -0.326641 0.191342 0.326641
v -0.353553 0.000000 0.353553
v -0.326641 -0.191342 0.326641
v -0.250000 -0.353553 0.250000
v -0.135299 -0.461940 0.135299
v -0.176777 0.461940 0.073223
v -0.326641 0.353553 0.135299
v -0.426777 0.191342 0.176777
v -0.461940 0.000000 0.191342
v -0.426777 -0.191342 0.176777
v -0.326641 -0.353553 0.135299
v -0.176777 -0.461940 0.073223
v -0.191342 0.461940 -0.000000
v -0.353553 0.353553 -0.000000
v -0.461940 0.191342 -0.000000
v -0.500000 0.000000 -0.000000
v -0.461940 -0.191342 -0.000000
v -0.353553 -0.353553 -0.000000
v -0.191342 -0.461940 -0.000000
v -0.176777 0.461940 -0.073223
v -0.326641 0.353553 -0.135299
v -0.426777 0.191342 -0.176777
v -0.461940 0.000000 -0.191342
v -0.426777 -0.191342 -0.176777
v -0.326641 -0.353553 -0.135299
v -0.176777 -0.461940 -0.073223
v -0.135299 0.461940 -0.135299
v -0.250000 0.353553 -0.250000
v -0.326641 0.191342 -0.326641
v -0.353553 0.000000 -0.353553
v -0.326641 -0.191342 -0.326641
v -0.250000 -0.353553 -0.250000
v -0.135299 -0.461940 -0.135299
v -0.073223 0.461940 -0.176777
v -0.135299 0.353553 -0.326641
v -0.176777 0.191342 -0.426777
v -0.191342 0.000000 -0.461940
v -0.176777 -0.191342 -0.426777
v -0.135299 -0.353553 -0.326641
v -0.073223 -0.461940 -0.176777
v 0.000000 0.461940 -0.191342
v 0.000000 0.353553 -0.353553
v 0.000000 0.191342 -0.461940
v 0.000000 0.000000 -0.500000
v 0.000000 -0.191342 -0.461940
v 0.000000 -0.353553 -0.353553
v 0.000000 -0.461940 -0.191342
v 0.000000 -0.500000 0.000000
v 0.000000 0.500000 0.000000
v 0.073223 0.461940 -0.176777
v 0.135299 0.353553 -0.326641
v 0.176777 0.191342 -0.426777
v 0.191342 0.000000 -0.461940
v 0.176777 -0.191342 -0.426777
v 0.135299 -0.353553 -0.326641
v 0.073223 -0.461940 -0.176777
v 0.135299 0.461940 -0.135299
v 0.250000 0.353553 -0.250000
v 0.326641 0.191342 -0.326641
v 0.353554 0.000000 -0.353553
v 0.326641 -0.191342 -0.326641
v 0.250000 -0.353553 -0.250000
v 0.135299 -0.461940 -0.135299
v 0.176777 0.461940 -0.073223
v 0.326641 0.353553 -0.135299
v 0.426777 0.191342 -0.176777
v 0.461940 0.000000 -0.191341
v 0.426777 -0.191342 -0.176777
v 0.326641 -0.353553 -0.135299
v 0.176777 -0.461940 -0.073223
v 0.191342 0.461940 0.000000
v 0.353553 0.353553 0.000000
v 0.461940 0.191342 0.000000
v 0.500000 0.000000 0.000000
v 0.461940 -0.191342 0.000000
v 0.353553 -0.353553 0.000000
v 0.191342 -0.461940 0.000000
v 0.176777 0.461940 0.073223
v 0.326641 0.353553 0.135299
v 0.426777 0.191342 0.176777
v 0.461940 0.000000 0.191342
v 0.426777 -0.191342 0.176777
v 0.326641 -0.353553 0.135299
v 0.176777 -0.461940 0.073223
v 0.135299 0.461940 0.135299
v 0.250000 0.353553 0.250000
v 0.326641 0.191342 0.326641
v 0.353553 0.000000 0.353554
v 0.326641 -0.191342 0.326641
v 0.250000 -0.353553 0.250000
v 0.135299 -0.461940 0.135299
v 0.073223 0.461940 0.176777
v 0.135299 0.353553 0.326641
v 0.176776 0.191342 0.426777
v 0.191341 0.000000 0.461940
v 0.176776 -0.191342 0.426777
v 0.135299 -0.353553 0.326641
v 0.073223 -0.461940 0.176777
v -0.000000 0.461940 0.191342
v -0.000000 0.353553 0.353553
v -0.000000 -0.353553 0.353553
vn -0.1098 -0.8264 0.5522
vn -0.1915 -0.1915 0.9626
vn -0.1632 0.5481 0.8203
vn -0.0388 0.9800 0.1949
vn -0.0388 -0.9800 0.1949
vn -0.1632 -0.5481 0.8203
vn -0.1915 0.1915 0.9626
vn -0.1098 0.8264 0.5522
vn -0.1104 0.9800 0.1653
vn -0.1104 -0.9800 0.1653
vn -0.4647 -0.5481 0.6954
vn -0.5453 0.1915 0.8161
vn -0.3128 0.8264 0.4681
vn -0.3128 -0.8264 0.4681
vn -0.5453 -0.1915 0.8161
vn -0.4647 0.5481 0.6954
vn -0.6954 -0.5481 0.4647
vn -0.8161 0.1915 0.5453
vn -0.4681 0.8264 0.3128
vn -0.4681 -0.8264 0.3128
vn -0.8161 -0.1915 0.5453
vn -0.6954 0.5481 0.4647
vn -0.1653 0.9800 0.1104
vn -0.1653 -0.9800 0.1104
vn -0.5522 -0.8264 0.1098
vn -0.9626 -0.1915 0.1915
vn -0.8203 0.5481 0.1632
vn -0.1949 0.9800 0.0388
vn -0.1949 -0.9800 0.0388
vn -0.8203 -0.5481 0.1632
vn -0.9626 0.1915 0.1915
vn -0.5522 0.8264 0.1098
vn -0.9626 -0.1915 -0.1915
vn -0.8203 0.5481 -0.1632
vn -0.1949 0.9800 -0.0388
vn -0.1949 -0.9800 -0.0388
vn -0.8203 -0.5481 -0.1632
vn -0.9626 0.1915 -0.1915
vn -0.5522 0.8264 -0.1098
vn -0.5522 -0.8264 -0.1098
vn -0.1653 -0.9800 -0.1104
vn -0.6954 -0.5481 -0.4647
vn -0.8161 0.1915 -0.5453
vn -0.4681 0.8264 -0.3128
vn -0.4681 -0.8264 -0.3128
vn -0.8161 -0.1915 -0.5453
vn -0.6954 0.5481 -0.4647
vn -0.1653 0.9800 -0.1104
vn -0.5453 0.1915 -0.8161
vn -0.3128 0.8264 -0.4681
vn -0.3128 -0.8264 -0.4681
vn -0.5453 -0.1915 -0.8161
vn -0.4647 0.5481 -0.6954
vn -0.1104 0.9800 -0.1653
vn -0.1104 -0.9800 -0.1653
vn -0.4647 -0.5481 -0.6954
vn -0.1098 -0.8264 -0.5522
vn -0.1915 -0.1915 -0.9626
vn -0.1632 0.5481 -0.8203
vn -0.0388 0.9800 -0.1949
vn -0.0388 -0.9800 -0.1949
vn -0.1632 -0.5481 -0.8203
vn -0.1915 0.1915 -0.9626
vn -0.1098 0.8264 -0.5522
vn 0.1632 0.5481 -0.8203
vn 0.0388 0.9800 -0.1949
vn 0.0388 -0.9800 -0.1949
vn 0.1632 -0.5481 -0.8203
vn 0.1915 0.1915 -0.9626
vn 0.1098 0.8264 -0.5522
vn 0.1098 -0.8264 -0.5522
vn 0.1915 -0.1915 -0.9626
vn 0.1104 -0.9800 -0.1653
vn 0.4647 -0.5481 -0.6954
vn 0.5453 0.1915 -0.8161
vn 0.3128 0.8264 -0.4681
vn 0.3128 -0.8264 -0.4681
vn 0.5453 -0.1915 -0.8161
vn 0.4647 0.5481 -0.6954
vn 0.1104 0.9800 -0.1653
vn 0.4681 0.8264 -0.3128
vn 0.4681 -0.8264 -0.3128
vn 0.8161 -0.1915 -0.5453
vn 0.6954 0.5481 -0.4647
vn 0.1653 0.9800 -0.1104
vn 0.1653 -0.9800 -0.1104
vn 0.6954 -0.5481 -0.4647
vn 0.8161 0.1915 -0.5453
vn 0.5522 -0.8264 -0.1098
vn 0.9626 -0.1915 -0.1915
vn 0.8203 0.5481 -0.1632
vn 0.1949 0.9800 -0.0388
vn 0.1949 -0.9800 -0.0388
vn 0.8203 -0.5481 -0.1632
vn 0.9626 0.1915 -0.1915
vn 0.5522 0.8264 -0.1098
vn 0.1949 0.9800 0.0388
vn 0.1949 -0.9800 0.0388
vn 0.8203 -0.5481 0.1632
vn 0.9626 0.1915 0.1915
vn 0.5522 0.8264 0.1098
vn 0.5522 -0.8264 0.1098
vn 0.9626 -0.1915 0.1915
vn 0.8203 0.5481 0.1632
vn 0.6954 -0.5481 0.4647
vn 0.8161 0.1915 0.5453
vn 0.4681 0.8264 0.3128
vn 0.4681 -0.8264 0.3128
vn 0.8161 -0.1915 0.5453
vn 0.6954 0.5481 0.4647
vn 0.1653 0.9800 0.1104
vn 0.1653 -0.9800 0.1104
vn 0.3128 -0.8264 0.4681
vn 0.5453 -0.1915 0.8161
vn 0.4647 0.5481 0.6954
vn 0.1104 0.9800 0.1653
vn 0.1104 -0.9800 0.1653
vn 0.4647 -0.5481 0.6954
vn 0.5453 0.1915 0.8161
vn 0.3128 0.8264 0.4681
vn 0.1915 -0.1915 0.9626
vn 0.1632 0.5481 0.8203
vn 0.0388 0.9800 0.1949
vn 0.0388 -0.9800 0.1949
vn 0.1632 -0.5481 0.8203
vn 0.1915 0.1915 0.9626
vn 0.1098 0.8264 0.5522
vn 0.1098 -0.8264 0.5522
vt 0.750000 0.625000
vt 0.750000 0.500000
vt 0.750000 0.375000
vt 0.750000 0.125000
vt 0.687500 0.875000
vt 0.687500 0.750000
vt 0.687500 0.625000
vt 0.687500 0.500000
vt 0.687500 0.375000
vt 0.687500 0.250000
vt 0.687500 0.125000
vt 0.625000 0.875000
vt 0.625000 0.750000
vt 0.625000 0.625000
vt 0.625000 0.500000
vt 0.625000 0.375000
vt 0.625000 0.250000
vt 0.625000 0.125000
vt 0.562500 0.875000
vt 0.562500 0.750000
vt 0.562500 0.625000
vt 0.562500 0.500000
vt 0.562500 0.375000
vt 0.562500 0.250000
vt 0.562500 0.125000
vt 0.500000 0.875000
vt 0.500000 0.750000
vt 0.500000 0.625000
vt 0.500000 0.500000
vt 0.500000 0.375000
vt 0.500000 0.250000
vt 0.500000 0.125000
vt 0.437500 0.875000
vt 0.437500 0.750000
vt 0.437500 0.625000
vt 0.437500 0.500000
vt 0.437500 0.375000
vt 0.437500 0.250000
vt 0.437500 0.125000
vt 0.375000 0.875000
vt 0.375000 0.750000
vt 0.375000 0.625000
vt 0.375000 0.500000
vt 0.375000 0.375000
vt 0.375000 0.250000
vt 0.375000 0.125000
vt 0.312500 0.875000
vt 0.312500 0.750000
vt 0.312500 0.625000
vt 0.312500 0.500000
vt 0.312500 0.375000
vt 0.312500 0.250000
vt 0.312500 0.125000
vt 0.250000 0.875000
vt 0.250000 0.750000
vt 0.250000 0.625000
vt 0.250000 0.500000
vt 0.250000 0.375000
vt 0.250000 0.250000
vt 0.250000 0.125000
vt 0.718750 0.000000
vt 0.656250 0.000000
vt 0.593750 0.000000
vt 0.531250 0.000000
vt 0.468750 0.000000
vt 0.406250 0.000000
vt 0.343750 0.000000
vt 0.281250 0.000000
vt 0.218750 0.000000
vt 0.156250 0.000000
vt 0.093750 0.000000
vt 0.031250 0.000000
vt 0.968750 0.000000
vt 0.906250 0.000000
vt 0.843750 0.000000
vt 0.781250 0.000000
vt 0.718750 1.000000
vt 0.656250 1.000000
vt 0.593750 1.000000
vt 0.531250 1.000000
vt 0.468750 1.000000
vt 0.406250 1.000000
vt 0.343750 1.000000
vt 0.281250 1.000000
vt 0.218750 1.000000
vt 0.156250 1.000000
vt 0.093750 1.000000
vt 0.031250 1.000000
vt 0.968750 1.000000
vt 0.906250 1.000000
vt 0.843750 1.000000
vt 0.781250 1.000000
vt 0.187500 0.875000
vt 0.187500 0.750000
vt 0.187500 0.625000
vt 0.187500 0.500000
vt 0.187500 0.375000
vt 0.187500 0.250000
vt 0.187500 0.125000
vt 0.125000 0.875000
vt 0.125000 0.750000
vt 0.125000 0.625000
vt 0.125000 0.500000
vt 0.125000 0.375000
vt 0.125000 0.250000
vt 0.125000 0.125000
vt 0.062500 0.875000
vt 0.062500 0.750000
vt 0.062500 0.625000
vt 0.062500 0.500000
vt 0.062500 0.375000
vt 0.062500 0.250000
vt 0.062500 0.125000
vt 0.000000 0.875000
vt 1.000000 0.875000
vt 0.000000 0.750000
vt 1.000000 0.750000
vt 0.000000 0.625000
vt 1.000000 0.625000
vt 0.000000 0.500000
vt 1.000000 0.500000
vt 0.000000 0.375000
vt 1.000000 0.375000
vt 0.000000 0.250000
vt 1.000000 0.250000
vt 0.000000 0.125000
vt 1.000000 0.125000
vt 0.937500 0.875000
vt 0.937500 0.750000
vt 0.937500 0.625000
vt 0.937500 0.500000
vt 0.937500 0.375000
vt 0.937500 0.250000
vt 0.937500 0.125000
vt 0.875000 0.875000
vt 0.875000 0.750000
vt 0.875000 0.625000
vt 0.875000 0.500000
vt 0.875000 0.375000
vt 0.875000 0.250000
vt 0.875000 0.125000
vt 0.812500 0.875000
vt 0.812500 0.750000
vt 0.812500 0.625000
vt 0.812500 0.500000
vt 0.812500 0.375000
vt 0.812500 0.250000
vt 0.812500 0.125000
vt 0.750000 0.875000
vt 0.750000 0.750000
vt 0.750000 0.250000
s 0
f 4/4/1 114/151/1 10/10/1 11/11/1
f 3/3/2 2/2/2 8/8/2 9/9/2
f 1/1/3 113/150/3 6/6/3 7/7/3
f 112/149/4 62/77/4 5/5/4
f 61/61/5 4/4/5 11/11/5
f 114/151/6 3/3/6 9/9/6 10/10/6
f 2/2/7 1/1/7 7/7/7 8/8/7
f 113/150/8 112/149/8 5/5/8 6/6/8
f 5/5/9 62/78/9 12/12/9
f 61/62/10 11/11/10 18/18/10
f 10/10/11 9/9/11 16/16/11 17/17/11
f 8/8/12 7/7/12 14/14/12 15/15/12
f 6/6/13 5/5/13 12/12/13 13/13/13
f 11/11/14 10/10/14 17/17/14 18/18/14
f 9/9/15 8/8/15 15/15/15 16/16/15
f 7/7/16 6/6/16 13/13/16 14/14/16
f 17/17/17 16/16/17 23/23/17 24/24/17
f 15/15/18 14/14/18 21/21/18 22/22/18
f 13/13/19 12/12/19 19/19/19 20/20/19
f 18/18/20 17/17/20 24/24/20 25/25/20
f 16/16/21 15/15/21 22/22/21 23/23/21
f 14/14/22 13/13/22 20/20/22 21/21/22
f 12/12/23 62/79/23 19/19/23
f 61/63/24 18/18/24 25/25/24
f 25/25/25 24/24/25 31/31/25 32/32/25
f 23/23/26 22/22/26 29/29/26 30/30/26
f 21/21/27 20/20/27 27/27/27 28/28/27
f 19/19/28 62/80/28 26/26/28
f 61/64/29 25/25/29 32/32/29
f 24/24/30 23/23/30 30/30/30 31/31/30
f 22/22/31 21/21/31 28/28/31 29/29/31
f 20/20/32 19/19/32 26/26/32 27/27/32
f 30/30/33 29/29/33 36/36/33 37/37/33
f 28/28/34 27/27/34 34/34/34 35/35/34
f 26/26/35 62/81/35 33/33/35
f 61/65/36 32/32/36 39/39/36
f 31/31/37 30/30/37 37/37/37 38/38/37
f 29/29/38 28/28/38 35/35/38 36/36/38
f 27/27/39 26/26/39 33/33/39 34/34/39
f 32/32/40 31/31/40 38/38/40 39/39/40
f 61/66/41 39/39/41 46/46/41
f 38/38/42 37/37/42 44/44/42 45/45/42
f 36/36/43 35/35/43 42/42/43 43/43/43
f 34/34/44 33/33/44 40/40/44 41/41/44
f 39/39/45 38/38/45 45/45/45 46/46/45
f 37/37/46 36/36/46 43/43/46 44/44/46
f 35/35/47 34/34/47 41/41/47 42/42/47
f 33/33/48 62/82/48 40/40/48
f 43/43/49 42/42/49 49/49/49 50/50/49
f 41/41/50 40/40/50 47/47/50 48/48/50
f 46/46/51 45/45/51 52/52/51 53/53/51
f 44/44/52 43/43/52 50/50/52 51/51/52
f 42/42/53 41/41/53 48/48/53 49/49/53
f 40/40/54 62/83/54 47/47/54
f 61/67/55 46/46/55 53/53/55
f 45/45/56 44/44/56 51/51/56 52/52/56
f 53/53/57 52/52/57 59/59/57 60/60/57
f 51/51/58 50/50/58 57/57/58 58/58/58
f 49/49/59 48/48/59 55/55/59 56/56/59
f 47/47/60 62/84/60 54/54/60
f 61/68/61 53/53/61 60/60/61
f 52/52/62 51/51/62 58/58/62 59/59/62
f 50/50/63 49/49/63 56/56/63 57/57/63
f 48/48/64 47/47/64 54/54/64 55/55/64
f 56/56/65 55/55/65 64/94/65 65/95/65
f 54/54/66 62/85/66 63/93/66
f 61/69/67 60/60/67 69/99/67
f 59/59/68 58/58/68 67/97/68 68/98/68
f 57/57/69 56/56/69 65/95/69 66/96/69
f 55/55/70 54/54/70 63/93/70 64/94/70
f 60/60/71 59/59/71 68/98/71 69/99/71
f 58/58/72 57/57/72 66/96/72 67/97/72
f 61/70/73 69/99/73 76/106/73
f 68/98/74 67/97/74 74/104/74 75/105/74
f 66/96/75 65/95/75 72/102/75 73/103/75
f 64/94/76 63/93/76 70/100/76 71/101/76
f 69/99/77 68/98/77 75/105/77 76/106/77
f 67/97/78 66/96/78 73/103/78 74/104/78
f 65/95/79 64/94/79 71/101/79 72/102/79
f 63/93/80 62/86/80 70/100/80
f 71/101/81 70/100/81 77/107/81 78/108/81
f 76/106/82 75/105/82 82/112/82 83/113/82
f 74/104/83 73/103/83 80/110/83 81/111/83
f 72/102/84 71/101/84 78/108/84 79/109/84
f 70/100/85 62/87/85 77/107/85
f 61/71/86 76/106/86 83/113/86
f 75/105/87 74/104/87 81/111/87 82/112/87
f 73/103/88 72/102/88 79/109/88 80/110/88
f 83/113/89 82/112/89 89/124/89 90/126/89
f 81/111/90 80/110/90 87/120/90 88/122/90
f 79/109/91 78/108/91 85/116/91 86/118/91
f 77/107/92 62/88/92 84/114/92
f 61/72/93 83/113/93 90/126/93
f 82/112/94 81/111/94 88/122/94 89/124/94
f 80/110/95 79/109/95 86/118/95 87/120/95
f 78/108/96 77/107/96 84/114/96 85/116/96
f 84/115/97 62/89/97 91/128/97
f 61/73/98 90/127/98 97/134/98
f 89/125/99 88/123/99 95/132/99 96/133/99
f 87/121/100 86/119/100 93/130/100 94/131/100
f 85/117/101 84/115/101 91/128/101 92/129/101
f 90/127/102 89/125/102 96/133/102 97/134/102
f 88/123/103 87/121/103 94/131/103 95/132/103
f 86/119/104 85/117/104 92/129/104 93/130/104
f 96/133/105 95/132/105 102/139/105 103/140/105
f 94/131/106 93/130/106 100/137/106 101/138/106
f 92/129/107 91/128/107 98/135/107 99/136/107
f 97/134/108 96/133/108 103/140/108 104/141/108
f 95/132/109 94/131/109 101/138/109 102/139/109
f 93/130/110 92/129/110 99/136/110 100/137/110
f 91/128/111 62/90/111 98/135/111
f 61/74/112 97/134/112 104/141/112
f 104/141/113 103/140/113 110/147/113 111/148/113
f 102/139/114 101/138/114 108/145/114 109/146/114
f 100/137/115 99/136/115 106/143/115 107/144/115
f 98/135/116 62/91/116 105/142/116
f 61/75/117 104/141/117 111/148/117
f 103/140/118 102/139/118 109/146/118 110/147/118
f 101/138/119 100/137/119 107/144/119 108/145/119
f 99/136/120 98/135/120 105/142/120 106/143/120
f 109/146/121 108/145/121 2/2/121 3/3/121
f 107/144/122 106/143/122 113/150/122 1/1/122
f 105/142/123 62/92/123 112/149/123
f 61/76/124 111/148/124 4/4/124
f 110/147/125 109/146/125 3/3/125 114/151/125
f 108/145/126 107/144/126 1/1/126 2/2/126
f 106/143/127 105/142/127 112/149/127 113/150/127
f 111/148/128 110/147/128 114/151/128 4/4/128
